<svg xmlns="http://www.w3.org/2000/svg" width="20" height="20" viewBox="0 0 20 20" fill="none">
  <mask id="mask0_179_361" style="mask-type:alpha" maskUnits="userSpaceOnUse" x="0" y="0" width="20" height="20">
    <rect width="20" height="20" fill="currentColor"/>
  </mask>
  <g mask="url(#mask0_179_361)">
    <path d="M3.58983 15.4166C3.16886 15.4166 2.81254 15.2708 2.52087 14.9791C2.22921 14.6874 2.08337 14.3311 2.08337 13.9101V6.08971C2.08337 5.66874 2.22921 5.31242 2.52087 5.02075C2.81254 4.72909 3.16886 4.58325 3.58983 4.58325H16.4102C16.8312 4.58325 17.1875 4.72909 17.4792 5.02075C17.7709 5.31242 17.9167 5.66874 17.9167 6.08971V13.9101C17.9167 14.3311 17.7709 14.6874 17.4792 14.9791C17.1875 15.2708 16.8312 15.4166 16.4102 15.4166H3.58983ZM3.58983 14.1666H16.4102C16.4744 14.1666 16.5332 14.1398 16.5865 14.0864C16.64 14.033 16.6667 13.9743 16.6667 13.9101V6.08971C16.6667 6.02554 16.64 5.96679 16.5865 5.91346C16.5332 5.85999 16.4744 5.83325 16.4102 5.83325H3.58983C3.52567 5.83325 3.46692 5.85999 3.41358 5.91346C3.36011 5.96679 3.33337 6.02554 3.33337 6.08971V13.9101C3.33337 13.9743 3.36011 14.033 3.41358 14.0864C3.46692 14.1398 3.52567 14.1666 3.58983 14.1666ZM6.76296 13.237H13.2371V11.7628H6.76296V13.237ZM4.26296 10.737H5.73712V9.26284H4.26296V10.737ZM6.76296 10.737H8.23712V9.26284H6.76296V10.737ZM9.26296 10.737H10.7371V9.26284H9.26296V10.737ZM11.763 10.737H13.2371V9.26284H11.763V10.737ZM14.263 10.737H15.7371V9.26284H14.263V10.737ZM4.26296 8.237H5.73712V6.76284H4.26296V8.237ZM6.76296 8.237H8.23712V6.76284H6.76296V8.237ZM9.26296 8.237H10.7371V6.76284H9.26296V8.237ZM11.763 8.237H13.2371V6.76284H11.763V8.237ZM14.263 8.237H15.7371V6.76284H14.263V8.237Z" fill="white"/>
  </g>
</svg>