<svg xmlns="http://www.w3.org/2000/svg" width="28" height="28" viewBox="0 0 28 29" fill="none">
  <mask id="mask0_196_709" style="mask-type:alpha" maskUnits="userSpaceOnUse" x="0" y="0" width="28" height="29">
    <rect y="0.5" width="28" height="28" fill="#D9D9D9"/>
  </mask>
  <g mask="url(#mask0_196_709)">
    <path d="M13.9875 21.0511C14.3206 21.0511 14.6019 20.9362 14.8316 20.7063C15.0612 20.4763 15.176 20.1947 15.176 19.8614C15.176 19.5283 15.061 19.2469 14.831 19.0173C14.601 18.7878 14.3194 18.6731 13.9863 18.6731C13.6532 18.6731 13.3719 18.7881 13.1422 19.0182C12.9126 19.2482 12.7978 19.5298 12.7978 19.8628C12.7978 20.1959 12.9128 20.4773 13.1428 20.7069C13.3729 20.9364 13.6544 21.0511 13.9875 21.0511ZM13.1612 16.8735H14.8036C14.8185 16.2993 14.9026 15.8406 15.0559 15.4972C15.2093 15.154 15.5814 14.699 16.1721 14.1322C16.6852 13.619 17.0782 13.1452 17.351 12.7106C17.624 12.2762 17.7605 11.7632 17.7605 11.1715C17.7605 10.1672 17.3997 9.38267 16.6781 8.818C15.9563 8.25353 15.1026 7.97129 14.117 7.97129C13.1432 7.97129 12.3374 8.23117 11.6997 8.75092C11.0617 9.27067 10.6066 9.88278 10.3344 10.5872L11.833 11.1884C11.9751 10.801 12.2181 10.4237 12.5621 10.0564C12.9061 9.68931 13.4169 9.50575 14.0945 9.50575C14.784 9.50575 15.2937 9.69456 15.6235 10.0722C15.9534 10.45 16.1184 10.8654 16.1184 11.3185C16.1184 11.7149 16.0054 12.0777 15.7795 12.4067C15.5537 12.7357 15.2659 13.0535 14.9159 13.3601C14.15 14.0512 13.6661 14.6024 13.4642 15.0139C13.2622 15.4251 13.1612 16.045 13.1612 16.8735ZM14.0024 25.5833C12.4694 25.5833 11.0284 25.2924 9.67957 24.7106C8.33071 24.1288 7.15744 23.3393 6.15974 22.342C5.16205 21.3447 4.37212 20.1719 3.78995 18.8236C3.20798 17.4753 2.91699 16.0348 2.91699 14.502C2.91699 12.969 3.20788 11.5281 3.78966 10.1792C4.37144 8.83035 5.16098 7.65707 6.15828 6.65938C7.15559 5.66168 8.32838 4.87175 9.67666 4.28958C11.0249 3.70761 12.4655 3.41663 13.9983 3.41663C15.5313 3.41663 16.9722 3.70751 18.3211 4.28929C19.6699 4.87107 20.8432 5.66061 21.8409 6.65792C22.8386 7.65522 23.6285 8.82801 24.2107 10.1763C24.7927 11.5246 25.0837 12.9651 25.0837 14.4979C25.0837 16.0309 24.7928 17.4718 24.211 18.8207C23.6292 20.1696 22.8397 21.3428 21.8424 22.3405C20.8451 23.3382 19.6723 24.1282 18.324 24.7103C16.9757 25.2923 15.5352 25.5833 14.0024 25.5833ZM14.0003 23.8333C16.6059 23.8333 18.8128 22.9291 20.6212 21.1208C22.4295 19.3125 23.3337 17.1055 23.3337 14.5C23.3337 11.8944 22.4295 9.68746 20.6212 7.87913C18.8128 6.07079 16.6059 5.16663 14.0003 5.16663C11.3948 5.16663 9.18783 6.07079 7.37949 7.87913C5.57116 9.68746 4.66699 11.8944 4.66699 14.5C4.66699 17.1055 5.57116 19.3125 7.37949 21.1208C9.18783 22.9291 11.3948 23.8333 14.0003 23.8333Z" fill="black" fill-opacity="0.3"/>
  </g>
</svg>