<svg xmlns="http://www.w3.org/2000/svg" width="28" height="29" viewBox="0 0 28 29" fill="none">
<mask id="mask0_514_1325" style="mask-type:alpha" maskUnits="userSpaceOnUse" x="0" y="0" width="28" height="29">
<rect y="0.5" width="28" height="28" fill="#D9D9D9"/>
</mask>
<g mask="url(#mask0_514_1325)">
<path d="M13.9861 22.0929C14.3467 22.0929 14.6514 21.9685 14.9 21.7197C15.1486 21.4706 15.2729 21.1657 15.2729 20.8048C15.2729 20.4442 15.1484 20.1396 14.8994 19.8909C14.6503 19.6425 14.3455 19.5183 13.9848 19.5183C13.6242 19.5183 13.3196 19.6428 13.0709 19.8919C12.8223 20.1409 12.698 20.4458 12.698 20.8064C12.698 21.1671 12.8225 21.4717 13.0716 21.7203C13.3206 21.9687 13.6255 22.0929 13.9861 22.0929ZM13.0915 17.5699H14.8697C14.8859 16.9482 14.9769 16.4515 15.1428 16.0797C15.3089 15.7081 15.7118 15.2155 16.3514 14.6018C16.9069 14.0462 17.3324 13.5332 17.6278 13.0626C17.9234 12.5923 18.0712 12.0368 18.0712 11.3962C18.0712 10.3088 17.6805 9.45947 16.8993 8.84811C16.1178 8.23695 15.1935 7.93137 14.1263 7.93137C13.072 7.93137 12.1996 8.21274 11.5091 8.77547C10.8183 9.33821 10.3256 10.0009 10.0308 10.7637L11.6534 11.4145C11.8073 10.9952 12.0704 10.5866 12.4428 10.1889C12.8153 9.79147 13.3683 9.59274 14.102 9.59274C14.8485 9.59274 15.4003 9.79716 15.7574 10.206C16.1146 10.6151 16.2933 11.0648 16.2933 11.5554C16.2933 11.9846 16.1709 12.3774 15.9263 12.7336C15.6819 13.0898 15.3702 13.4339 14.9913 13.7659C14.162 14.5141 13.6381 15.1109 13.4196 15.5564C13.2008 16.0017 13.0915 16.6728 13.0915 17.5699ZM14.0022 27C12.3424 27 10.7823 26.6851 9.32189 26.0552C7.86147 25.4253 6.59116 24.5704 5.51095 23.4906C4.43074 22.4108 3.57547 21.1411 2.94516 19.6813C2.31505 18.2215 2 16.6618 2 15.0022C2 13.3424 2.31495 11.7823 2.94484 10.3219C3.57474 8.86147 4.42958 7.59116 5.50937 6.51095C6.58916 5.43074 7.85895 4.57547 9.31874 3.94516C10.7785 3.31505 12.3382 3 13.9978 3C15.6576 3 17.2177 3.31495 18.6781 3.94484C20.1385 4.57474 21.4088 5.42958 22.4891 6.50937C23.5693 7.58916 24.4245 8.85895 25.0548 10.3187C25.6849 11.7785 26 13.3382 26 14.9978C26 16.6576 25.6851 18.2177 25.0552 19.6781C24.4253 21.1385 23.5704 22.4088 22.4906 23.4891C21.4108 24.5693 20.1411 25.4245 18.6813 26.0548C17.2215 26.6849 15.6618 27 14.0022 27Z" fill="#999999"/>
</g>
</svg>