<svg xmlns="http://www.w3.org/2000/svg" width="20" height="20" viewBox="0 0 20 20" fill="none">
  <mask id="mask0_179_356" style="mask-type:alpha" maskUnits="userSpaceOnUse" x="0" y="0" width="20" height="20">
    <rect width="20" height="20" fill="currentColor"/>
  </mask>
  <g mask="url(#mask0_179_356)">
    <path d="M9.95663 13.838C10.195 13.838 10.3961 13.756 10.56 13.592C10.724 13.428 10.806 13.2269 10.806 12.9887C10.806 12.7505 10.724 12.5494 10.56 12.3853C10.3961 12.2213 10.195 12.1393 9.95663 12.1393C9.71843 12.1393 9.51732 12.2213 9.35329 12.3853C9.18927 12.5494 9.10725 12.7505 9.10725 12.9887C9.10725 13.2269 9.18927 13.428 9.35329 13.592C9.51732 13.756 9.71843 13.838 9.95663 13.838ZM9.36704 10.8541H10.54C10.5454 10.6446 10.5598 10.4646 10.5833 10.3141C10.6068 10.1634 10.6532 10.017 10.7227 9.87492C10.7921 9.73284 10.8802 9.59582 10.987 9.46388C11.094 9.33193 11.2366 9.17672 11.415 8.99825C11.8584 8.55492 12.1755 8.17804 12.3662 7.86763C12.5569 7.55735 12.6523 7.20457 12.6523 6.80929C12.6523 6.11582 12.4156 5.55679 11.9423 5.13221C11.4689 4.70749 10.8594 4.49513 10.1137 4.49513C9.43538 4.49513 8.85552 4.66791 8.37413 5.01346C7.89288 5.35916 7.55072 5.80923 7.34767 6.36367L8.41829 6.79325C8.5369 6.43964 8.73399 6.15089 9.00954 5.927C9.28524 5.70311 9.63086 5.59117 10.0464 5.59117C10.4963 5.59117 10.8475 5.71325 11.1002 5.95742C11.3528 6.20159 11.4791 6.49832 11.4791 6.84763C11.4791 7.10513 11.4027 7.35784 11.25 7.60575C11.0972 7.85353 10.8616 8.12117 10.5433 8.40867C10.3232 8.60311 10.1402 8.79138 9.99434 8.97346C9.8485 9.15568 9.72697 9.34291 9.62975 9.53513C9.53253 9.72749 9.4644 9.92756 9.42538 10.1353C9.38649 10.3431 9.36704 10.5827 9.36704 10.8541ZM9.99996 18.5737L7.67621 16.2499H4.42308C4.00211 16.2499 3.64579 16.1041 3.35413 15.8124C3.06246 15.5208 2.91663 15.1644 2.91663 14.7435V3.58971C2.91663 3.16874 3.06246 2.81242 3.35413 2.52075C3.64579 2.22909 4.00211 2.08325 4.42308 2.08325H15.5768C15.9978 2.08325 16.3541 2.22909 16.6458 2.52075C16.9375 2.81242 17.0833 3.16874 17.0833 3.58971V14.7435C17.0833 15.1644 16.9375 15.5208 16.6458 15.8124C16.3541 16.1041 15.9978 16.2499 15.5768 16.2499H12.3237L9.99996 18.5737ZM4.42308 14.9999H8.18267L9.99996 16.8172L11.8173 14.9999H15.5768C15.6517 14.9999 15.7132 14.9759 15.7612 14.9278C15.8093 14.8798 15.8333 14.8183 15.8333 14.7435V3.58971C15.8333 3.51485 15.8093 3.45339 15.7612 3.40534C15.7132 3.35728 15.6517 3.33325 15.5768 3.33325H4.42308C4.34822 3.33325 4.28677 3.35728 4.23871 3.40534C4.19065 3.45339 4.16663 3.51485 4.16663 3.58971V14.7435C4.16663 14.8183 4.19065 14.8798 4.23871 14.9278C4.28677 14.9759 4.34822 14.9999 4.42308 14.9999Z" fill="white"/>
  </g>
</svg>