<svg xmlns="http://www.w3.org/2000/svg" width="40" height="40" viewBox="0 0 40 40" fill="none">
  <mask id="mask0_196_959" style="mask-type:alpha" maskUnits="userSpaceOnUse" x="0" y="0" width="40" height="40">
    <rect width="40" height="40" fill="#D9D9D9"/>
  </mask>
  <g mask="url(#mask0_196_959)">
    <path d="M10.0387 28.8204C11.4553 27.7693 12.9987 26.9391 14.6687 26.33C16.3384 25.7211 18.1156 25.4166 20.0003 25.4166C21.885 25.4166 23.6623 25.7211 25.332 26.33C27.002 26.9391 28.5453 27.7693 29.962 28.8204C30.9981 27.6815 31.8191 26.3632 32.4249 24.8654C33.0307 23.3676 33.3337 21.7458 33.3337 20C33.3337 16.3055 32.035 13.1597 29.4378 10.5625C26.8406 7.96524 23.6948 6.66663 20.0003 6.66663C16.3059 6.66663 13.16 7.96524 10.5628 10.5625C7.9656 13.1597 6.66699 16.3055 6.66699 20C6.66699 21.7458 6.96991 23.3676 7.57574 24.8654C8.18158 26.3632 9.00255 27.6815 10.0387 28.8204ZM20.0007 21.25C18.4791 21.25 17.1959 20.7277 16.1512 19.6833C15.1062 18.6386 14.5837 17.3554 14.5837 15.8337C14.5837 14.312 15.1059 13.0288 16.1503 11.9841C17.195 10.9391 18.4782 10.4166 19.9999 10.4166C21.5216 10.4166 22.8048 10.9388 23.8495 11.9833C24.8945 13.028 25.417 14.3112 25.417 15.8329C25.417 17.3545 24.8948 18.6377 23.8503 19.6825C22.8056 20.7275 21.5224 21.25 20.0007 21.25ZM20.0003 35.8333C17.8017 35.8333 15.7392 35.4198 13.8128 34.5929C11.8864 33.7659 10.2107 32.6398 8.78574 31.2145C7.36046 29.7895 6.23435 28.1138 5.40741 26.1875C4.58046 24.2611 4.16699 22.1986 4.16699 20C4.16699 17.8013 4.58046 15.7388 5.40741 13.8125C6.23435 11.8861 7.36046 10.2104 8.78574 8.78538C10.2107 7.3601 11.8864 6.23399 13.8128 5.40704C15.7392 4.5801 17.8017 4.16663 20.0003 4.16663C22.1989 4.16663 24.2614 4.5801 26.1878 5.40704C28.1142 6.23399 29.7899 7.3601 31.2149 8.78538C32.6402 10.2104 33.7663 11.8861 34.5932 13.8125C35.4202 15.7388 35.8337 17.8013 35.8337 20C35.8337 22.1986 35.4202 24.2611 34.5932 26.1875C33.7663 28.1138 32.6402 29.7895 31.2149 31.2145C29.7899 32.6398 28.1142 33.7659 26.1878 34.5929C24.2614 35.4198 22.1989 35.8333 20.0003 35.8333ZM20.0003 33.3333C21.5045 33.3333 22.9548 33.0913 24.3512 32.6075C25.7475 32.1233 26.9874 31.4465 28.0707 30.577C26.9874 29.7393 25.7637 29.0865 24.3995 28.6187C23.035 28.1507 21.5687 27.9166 20.0003 27.9166C18.432 27.9166 16.963 28.1479 15.5932 28.6104C14.2235 29.0732 13.0024 29.7287 11.9299 30.577C13.0132 31.4465 14.2531 32.1233 15.6495 32.6075C17.0459 33.0913 18.4962 33.3333 20.0003 33.3333ZM20.0003 18.75C20.8295 18.75 21.5228 18.4711 22.0803 17.9133C22.6381 17.3558 22.917 16.6625 22.917 15.8333C22.917 15.0041 22.6381 14.3108 22.0803 13.7533C21.5228 13.1955 20.8295 12.9166 20.0003 12.9166C19.1712 12.9166 18.4778 13.1955 17.9203 13.7533C17.3625 14.3108 17.0837 15.0041 17.0837 15.8333C17.0837 16.6625 17.3625 17.3558 17.9203 17.9133C18.4778 18.4711 19.1712 18.75 20.0003 18.75Z" fill="#232527"/>
  </g>
</svg>