<svg xmlns="http://www.w3.org/2000/svg" width="24" height="25" viewBox="0 0 24 25" fill="none">
<mask id="mask0_417_2061" style="mask-type:alpha" maskUnits="userSpaceOnUse" x="0" y="0" width="24" height="25">
<rect y="0.5" width="24" height="24" fill="#D9D9D9"/>
</mask>
<g mask="url(#mask0_417_2061)">
<path d="M5 4.5V10.6788V10.6538V20.5V4.5ZM7.25 14.25H10.798C10.9225 13.9628 11.0674 13.6958 11.2327 13.449C11.3981 13.2022 11.584 12.9692 11.7905 12.75H7.25V14.25ZM7.25 18.25H10.2808C10.2231 18 10.1849 17.75 10.1662 17.5C10.1477 17.25 10.1487 17 10.1693 16.75H7.25V18.25ZM5.30775 22C4.80258 22 4.375 21.825 4.025 21.475C3.675 21.125 3.5 20.6974 3.5 20.1923V4.80775C3.5 4.30258 3.675 3.875 4.025 3.525C4.375 3.175 4.80258 3 5.30775 3H13.25L18.5 8.25V11.0095C18.2602 10.9147 18.0153 10.8426 17.7653 10.7932C17.5153 10.7439 17.2602 10.7058 17 10.6788V9H12.5V4.5H5.30775C5.23075 4.5 5.16025 4.53208 5.09625 4.59625C5.03208 4.66025 5 4.73075 5 4.80775V20.1923C5 20.2693 5.03208 20.3398 5.09625 20.4038C5.16025 20.4679 5.23075 20.5 5.30775 20.5H11.2077C11.4039 20.7975 11.6238 21.0722 11.8673 21.324C12.1109 21.576 12.375 21.8013 12.6595 22H5.30775ZM16.5 19.6538C17.2448 19.6538 17.8733 19.3977 18.3855 18.8855C18.8977 18.3733 19.1538 17.7448 19.1538 17C19.1538 16.2552 18.8977 15.6267 18.3855 15.1145C17.8733 14.6023 17.2448 14.3463 16.5 14.3463C15.7552 14.3463 15.1267 14.6023 14.6145 15.1145C14.1023 15.6267 13.8462 16.2552 13.8462 17C13.8462 17.7448 14.1023 18.3733 14.6145 18.8855C15.1267 19.3977 15.7552 19.6538 16.5 19.6538ZM21.6 23.1443L18.8615 20.4058C18.5243 20.6519 18.1548 20.8382 17.753 20.9645C17.351 21.0907 16.9333 21.1538 16.5 21.1538C15.3462 21.1538 14.3654 20.7499 13.5577 19.9423C12.7501 19.1346 12.3463 18.1538 12.3463 17C12.3463 15.8462 12.7501 14.8654 13.5577 14.0577C14.3654 13.2501 15.3462 12.8463 16.5 12.8463C17.6538 12.8463 18.6346 13.2501 19.4423 14.0577C20.2499 14.8654 20.6538 15.8462 20.6538 17C20.6538 17.4333 20.5907 17.851 20.4645 18.253C20.3382 18.6548 20.1519 19.0243 19.9058 19.3615L22.6443 22.1L21.6 23.1443Z" fill="#666666"/>
</g>
</svg>