<svg xmlns="http://www.w3.org/2000/svg" width="16" height="18" viewBox="0 0 16 18" fill="none">
<path d="M7 17.9312C5.12433 17.6875 3.57208 16.8613 2.34325 15.4524C1.11442 14.0434 0.5 12.3928 0.5 10.5004C0.5 9.48376 0.700667 8.50976 1.102 7.57843C1.50333 6.64693 2.0655 5.8286 2.7885 5.12343L3.85775 6.19268C3.24358 6.75301 2.78042 7.40335 2.46825 8.14368C2.15608 8.88401 2 9.6696 2 10.5004C2 11.9671 2.46825 13.2598 3.40475 14.3784C4.34125 15.4969 5.53967 16.1812 7 16.4312V17.9312ZM9 17.9504V16.4504C10.4437 16.1581 11.6379 15.4584 12.5828 14.3514C13.5276 13.2444 14 11.9608 14 10.5004C14 8.83376 13.4167 7.4171 12.25 6.25043C11.0833 5.08376 9.66667 4.50043 8 4.50043H7.64625L8.99625 5.85043L7.94225 6.90418L4.7885 3.75043L7.94225 0.59668L8.99625 1.65043L7.64625 3.00043H8C10.0923 3.00043 11.8654 3.72735 13.3193 5.18118C14.7731 6.63501 15.5 8.4081 15.5 10.5004C15.5 12.3824 14.884 14.0248 13.652 15.4274C12.4198 16.8299 10.8692 17.6709 9 17.9504Z" fill="white"/>
</svg>