<svg xmlns="http://www.w3.org/2000/svg" width="24" height="25" viewBox="0 0 24 25" fill="none">
  <mask id="mask0_269_3074" style="mask-type:alpha" maskUnits="userSpaceOnUse" x="0" y="0" width="24" height="25">
    <rect y="0.5" width="24" height="24" fill="#D9D9D9"/>
  </mask>
  <g mask="url(#mask0_269_3074)">
    <path d="M16.8055 22C16.057 22 15.4215 21.7383 14.899 21.2148C14.3767 20.6912 14.1155 20.0556 14.1155 19.3078C14.1155 19.2078 14.1501 18.9648 14.2193 18.5788L7.10775 14.3923C6.86675 14.6423 6.58042 14.8381 6.24875 14.9798C5.91708 15.1214 5.56175 15.1923 5.18275 15.1923C4.43758 15.1923 3.80417 14.9294 3.2825 14.4038C2.76083 13.8781 2.5 13.2435 2.5 12.5C2.5 11.7565 2.76083 11.1219 3.2825 10.5962C3.80417 10.0706 4.43758 9.80775 5.18275 9.80775C5.56175 9.80775 5.91708 9.87858 6.24875 10.0202C6.58042 10.1619 6.86675 10.3577 7.10775 10.6077L14.2193 6.43075C14.1796 6.30775 14.1523 6.18725 14.1375 6.06925C14.1228 5.95125 14.1155 5.82558 14.1155 5.69225C14.1155 4.94442 14.3774 4.30875 14.9012 3.78525C15.4253 3.26175 16.0615 3 16.81 3C17.5585 3 18.1939 3.262 18.7163 3.786C19.2388 4.30983 19.5 4.946 19.5 5.6945C19.5 6.443 19.2383 7.0785 18.7148 7.601C18.1912 8.12333 17.5556 8.3845 16.8077 8.3845C16.4269 8.3845 16.0728 8.31208 15.7452 8.16725C15.4176 8.02242 15.1333 7.825 14.8923 7.575L7.78075 11.7615C7.82042 11.8847 7.84767 12.0052 7.8625 12.123C7.87717 12.241 7.8845 12.3667 7.8845 12.5C7.8845 12.6333 7.87717 12.759 7.8625 12.877C7.84767 12.9948 7.82042 13.1153 7.78075 13.2385L14.8923 17.425C15.1333 17.175 15.4176 16.9776 15.7452 16.8328C16.0728 16.6879 16.4269 16.6155 16.8077 16.6155C17.5556 16.6155 18.1912 16.8774 18.7148 17.4012C19.2383 17.9253 19.5 18.5615 19.5 19.31C19.5 20.0585 19.238 20.6939 18.714 21.2163C18.1902 21.7388 17.554 22 16.8055 22Z" fill="#5A8AC6"/>
  </g>
</svg>