<svg xmlns="http://www.w3.org/2000/svg" width="33" height="32" viewBox="0 0 33 32" fill="none">
<mask id="mask0_399_658" style="mask-type:alpha" maskUnits="userSpaceOnUse" x="0" y="0" width="33" height="32">
<rect x="0.166748" width="32" height="32" fill="#D9D9D9"/>
</mask>
<g mask="url(#mask0_399_658)">
<path d="M7.24359 27.3333C6.5787 27.3333 6.0107 27.0979 5.53959 26.627C5.0687 26.1559 4.83325 25.5879 4.83325 24.923V7.077C4.83325 6.41211 5.0687 5.84411 5.53959 5.373C6.0107 4.90211 6.5787 4.66667 7.24359 4.66667H13.1769C13.2607 3.92644 13.5838 3.297 14.1463 2.77833C14.7085 2.25944 15.3819 2 16.1666 2C16.9597 2 17.6375 2.25944 18.1999 2.77833C18.7624 3.297 19.0811 3.92644 19.1563 4.66667H25.0896C25.7545 4.66667 26.3225 4.90211 26.7936 5.373C27.2645 5.84411 27.4999 6.41211 27.4999 7.077V24.923C27.4999 25.5879 27.2645 26.1559 26.7936 26.627C26.3225 27.0979 25.7545 27.3333 25.0896 27.3333H7.24359ZM7.24359 25.3333H25.0896C25.1923 25.3333 25.2863 25.2906 25.3716 25.205C25.4571 25.1197 25.4999 25.0257 25.4999 24.923V7.077C25.4999 6.97433 25.4571 6.88033 25.3716 6.795C25.2863 6.70944 25.1923 6.66667 25.0896 6.66667H7.24359C7.14092 6.66667 7.04692 6.70944 6.96159 6.795C6.87603 6.88033 6.83325 6.97433 6.83325 7.077V24.923C6.83325 25.0257 6.87603 25.1197 6.96159 25.205C7.04692 25.2906 7.14092 25.3333 7.24359 25.3333ZM9.83325 22.1793H18.4999V20.1797H9.83325V22.1793ZM9.83325 17H22.4999V15H9.83325V17ZM9.83325 11.8203H22.4999V9.82067H9.83325V11.8203ZM16.1666 5.795C16.4555 5.795 16.6944 5.70055 16.8833 5.51167C17.0721 5.32278 17.1666 5.08389 17.1666 4.795C17.1666 4.50611 17.0721 4.26722 16.8833 4.07833C16.6944 3.88944 16.4555 3.795 16.1666 3.795C15.8777 3.795 15.6388 3.88944 15.4499 4.07833C15.261 4.26722 15.1666 4.50611 15.1666 4.795C15.1666 5.08389 15.261 5.32278 15.4499 5.51167C15.6388 5.70055 15.8777 5.795 16.1666 5.795Z" fill="#232527"/>
</g>
</svg>

