<svg xmlns="http://www.w3.org/2000/svg" width="33" height="32" viewBox="0 0 33 32" fill="none">
<mask id="mask0_399_609" style="mask-type:alpha" maskUnits="userSpaceOnUse" x="0" y="0" width="33" height="32">
<rect x="0.833374" width="32" height="32" fill="#D9D9D9"/>
</mask>
<g mask="url(#mask0_399_609)">
<path d="M7.50024 11.7437H26.1669V8.41035C26.1669 8.30769 26.1241 8.21369 26.0386 8.12835C25.9532 8.0428 25.8592 8.00002 25.7566 8.00002H7.91058C7.80791 8.00002 7.71391 8.0428 7.62858 8.12835C7.54302 8.21369 7.50024 8.30769 7.50024 8.41035V11.7437ZM7.91058 28.6667C7.23702 28.6667 6.66691 28.4334 6.20024 27.9667C5.73358 27.5 5.50024 26.9299 5.50024 26.2564V8.41035C5.50024 7.7368 5.73358 7.16669 6.20024 6.70002C6.66691 6.23335 7.23702 6.00002 7.91058 6.00002H9.75658V3.17969H11.8079V6.00002H21.9106V3.17969H23.9106V6.00002H25.7566C26.4301 6.00002 27.0002 6.23335 27.4669 6.70002C27.9336 7.16669 28.1669 7.7368 28.1669 8.41035V15.695C27.8471 15.5548 27.5206 15.4415 27.1872 15.355C26.8539 15.2688 26.5138 15.2009 26.1669 15.1514V13.7437H7.50024V26.2564C7.50024 26.359 7.54302 26.453 7.62858 26.5384C7.71391 26.6239 7.80791 26.6667 7.91058 26.6667H16.5799C16.6926 27.0358 16.8289 27.3849 16.9889 27.714C17.1487 28.0431 17.3302 28.3607 17.5336 28.6667H7.91058ZM25.0899 30C23.425 30 22.0088 29.4162 20.8412 28.2487C19.6737 27.0811 19.0899 25.6649 19.0899 24C19.0899 22.3351 19.6737 20.9189 20.8412 19.7514C22.0088 18.5838 23.425 18 25.0899 18C26.755 18 28.1712 18.5838 29.3386 19.7514C30.5061 20.9189 31.0899 22.3351 31.0899 24C31.0899 25.6649 30.5061 27.0811 29.3386 28.2487C28.1712 29.4162 26.755 30 25.0899 30ZM27.3106 27.0514L28.1412 26.2207L25.6799 23.759V20.077H24.5002V24.241L27.3106 27.0514Z" fill="#232527"/>
</g>
</svg>