<svg xmlns="http://www.w3.org/2000/svg" width="32" height="32" viewBox="0 0 32 32" fill="none">
<mask id="mask0_399_593" style="mask-type:alpha" maskUnits="userSpaceOnUse" x="0" y="0" width="32" height="32">
<rect width="32" height="32" fill="#D9D9D9"/>
</mask>
<g mask="url(#mask0_399_593)">
<path d="M14.1076 21.6718L23.0716 12.7078L21.6666 11.3028L14.1076 18.8618L10.3076 15.0618L8.90258 16.4668L14.1076 21.6718ZM16.0023 28.6668C14.2503 28.6668 12.6035 28.3343 11.0619 27.6694C9.52036 27.0045 8.17947 26.1022 7.03925 24.9624C5.89903 23.8226 4.99625 22.4823 4.33092 20.9414C3.66581 19.4005 3.33325 17.7542 3.33325 16.0024C3.33325 14.2504 3.6657 12.6036 4.33059 11.0621C4.99547 9.52053 5.89781 8.17964 7.03759 7.03942C8.17736 5.8992 9.5177 4.99642 11.0586 4.33109C12.5995 3.66598 14.2458 3.33342 15.9976 3.33342C17.7496 3.33342 19.3964 3.66586 20.9379 4.33075C22.4795 4.99564 23.8204 5.89798 24.9606 7.03775C26.1008 8.17753 27.0036 9.51786 27.6689 11.0588C28.334 12.5996 28.6666 14.246 28.6666 15.9978C28.6666 17.7498 28.3341 19.3965 27.6693 20.9381C27.0044 22.4796 26.102 23.8205 24.9623 24.9608C23.8225 26.101 22.4821 27.0038 20.9413 27.6691C19.4004 28.3342 17.754 28.6668 16.0023 28.6668ZM15.9999 26.6668C18.9777 26.6668 21.4999 25.6334 23.5666 23.5668C25.6333 21.5001 26.6666 18.9779 26.6666 16.0001C26.6666 13.0223 25.6333 10.5001 23.5666 8.43342C21.4999 6.36675 18.9777 5.33342 15.9999 5.33342C13.0221 5.33342 10.4999 6.36675 8.43325 8.43342C6.36659 10.5001 5.33325 13.0223 5.33325 16.0001C5.33325 18.9779 6.36659 21.5001 8.43325 23.5668C10.4999 25.6334 13.0221 26.6668 15.9999 26.6668Z" fill="#232527"/>
</g>
</svg>