<svg xmlns="http://www.w3.org/2000/svg" width="28" height="29" viewBox="0 0 28 29" fill="none">
<mask id="mask0_269_4393" style="mask-type:alpha" maskUnits="userSpaceOnUse" x="0" y="0" width="28" height="29">
<rect y="0.5" width="28" height="28" fill="#D9D9D9"/>
</mask>
<g mask="url(#mask0_269_4393)">
<path d="M22.7996 24.5068L15.4721 17.179C14.8888 17.6606 14.2179 18.0376 13.4596 18.3098C12.7013 18.582 11.9168 18.7181 11.1061 18.7181C9.11211 18.7181 7.42453 18.0278 6.04339 16.647C4.66225 15.2663 3.97168 13.5791 3.97168 11.5854C3.97168 9.59198 4.66205 7.90421 6.0428 6.52209C7.42355 5.14018 9.11075 4.44922 11.1044 4.44922C13.0978 4.44922 14.7856 5.13979 16.1677 6.52093C17.5496 7.90207 18.2406 9.58965 18.2406 11.5837C18.2406 12.4169 18.1008 13.2126 17.8212 13.971C17.5414 14.7293 17.1681 15.3889 16.7015 15.9496L24.029 23.2772L22.7996 24.5068ZM11.1061 16.9684C12.6094 16.9684 13.8826 16.4467 14.9258 15.4033C15.9692 14.3601 16.4909 13.0869 16.4909 11.5837C16.4909 10.0804 15.9692 8.8072 14.9258 7.76401C13.8826 6.72062 12.6094 6.19893 11.1061 6.19893C9.60289 6.19893 8.32967 6.72062 7.28647 7.76401C6.24308 8.8072 5.72139 10.0804 5.72139 11.5837C5.72139 13.0869 6.24308 14.3601 7.28647 15.4033C8.32967 16.4467 9.60289 16.9684 11.1061 16.9684ZM8.32422 12.4587V10.7087H13.8881V12.4587H8.32422Z" fill="#232527"/>
</g>
</svg>